<svg width="574" height="521" viewBox="0 0 574 521" fill="none" xmlns="http://www.w3.org/2000/svg">
<g filter="url(#filter0_d_47_563)">
<path d="M168.824 430.542L109.699 321.922C107.262 317.445 100.54 318.576 99.7027 323.604C99.5056 324.787 99.7156 326.011 100.292 327.064C136.764 393.67 168.628 443.127 156.522 452.142L163.176 447.263C163.93 446.71 164.606 446.057 165.185 445.323L167.854 441.943C170.431 438.679 170.812 434.194 168.824 430.542Z" fill="#A5A0A6"/>
<path d="M17.02 436.706L81.4951 325.283C85.5477 318.279 95.6978 318.395 99.5902 325.488L160.73 436.911C164.528 443.833 159.52 452.294 151.625 452.294H26.0097C18.0099 452.294 13.0134 443.63 17.02 436.706Z" fill="#553F80"/>
<path d="M321.311 331.353L323.759 330.251C329.327 327.743 331.54 320.997 328.54 315.678L305.045 274.019L283.482 235.991C280.997 231.608 274.469 232.349 273.03 237.178C272.582 238.68 272.775 240.309 273.558 241.667C302.148 291.205 327.638 328.919 309.718 334.779L319.899 331.87C320.382 331.732 320.854 331.559 321.311 331.353Z" fill="#D9D8DD"/>
<path d="M315.947 318.011L271.036 238.953C267.055 231.945 256.955 231.945 252.974 238.953L208.063 318.011C204.129 324.935 209.13 333.527 217.093 333.527H306.916C314.88 333.527 319.881 324.935 315.947 318.011Z" fill="#945DB1"/>
<path d="M485.764 457.336L500.459 437.792C502.921 434.517 503.228 430.102 501.243 426.518L389.738 225.204L274.18 26.6676C271.896 22.743 266.253 22.6699 263.867 26.5338C262.718 28.3963 262.681 30.7543 263.755 32.6611C385.461 248.613 487.659 419.522 493.669 443.17C494.128 444.978 492.999 446.725 491.948 448.266L485.764 457.336Z" fill="#E3D5E8"/>
<path d="M115.446 263.682L247.219 33.8397C251.225 26.8521 261.315 26.8861 265.274 33.9005L492.879 437.171C496.787 444.095 491.784 452.662 483.834 452.662H232.158C228.548 452.662 225.196 450.787 223.307 447.71L203.256 415.052C199.007 408.132 203.987 399.232 212.107 399.232H392.362C400.354 399.232 405.352 390.582 401.359 383.658L265.14 147.413C261.179 140.543 251.291 140.467 247.225 147.275L153.474 304.258C149.562 310.808 140.159 311.046 135.921 304.702L115.82 274.618C113.629 271.34 113.484 267.103 115.446 263.682Z" fill="#945DB1"/>
<path d="M165.234 310.814L260.599 150.662C263.252 146.206 260.041 140.558 254.856 140.558C252.489 140.558 250.299 141.809 249.097 143.848L154.442 304.419C153.087 306.717 153.334 309.621 155.058 311.657C157.841 314.944 163.031 314.513 165.234 310.814Z" fill="#DCD9E4"/>
</g>
<defs>
<filter id="filter0_d_47_563" x="0.607422" y="0.679688" width="572.936" height="519.656" filterUnits="userSpaceOnUse" color-interpolation-filters="sRGB">
<feFlood flood-opacity="0" result="BackgroundImageFix"/>
<feColorMatrix in="SourceAlpha" type="matrix" values="0 0 0 0 0 0 0 0 0 0 0 0 0 0 0 0 0 0 127 0" result="hardAlpha"/>
<feOffset dx="28" dy="20"/>
<feGaussianBlur stdDeviation="21.5"/>
<feComposite in2="hardAlpha" operator="out"/>
<feColorMatrix type="matrix" values="0 0 0 0 0 0 0 0 0 0 0 0 0 0 0 0 0 0 0.25 0"/>
<feBlend mode="normal" in2="BackgroundImageFix" result="effect1_dropShadow_47_563"/>
<feBlend mode="normal" in="SourceGraphic" in2="effect1_dropShadow_47_563" result="shape"/>
</filter>
</defs>
</svg>
